<svg xmlns="http://www.w3.org/2000/svg" xmlns:xlink="http://www.w3.org/1999/xlink" width="500" zoomAndPan="magnify" viewBox="0 0 375 374.999991" height="500" preserveAspectRatio="xMidYMid meet" version="1.0"><defs><g/><clipPath id="0550ee9a4f"><path d="M 47.402344 149.566406 L 328.652344 149.566406 L 328.652344 220 L 47.402344 220 Z M 47.402344 149.566406 " clip-rule="nonzero"/></clipPath></defs><rect x="-37.5" width="450" fill="#ffffff" y="-37.499999" height="449.999989" fill-opacity="1"/><rect x="-37.5" width="450" fill="#ffffff" y="-37.499999" height="449.999989" fill-opacity="1"/><rect x="-37.5" width="450" fill="#ffffff" y="-37.499999" height="449.999989" fill-opacity="1"/><g clip-path="url(#0550ee9a4f)"><path fill="#ffeedf" d="M 220.925781 167.859375 C 224.628906 168.023438 228.371094 168.148438 232.074219 168.316406 C 235.734375 168.480469 239.394531 168.6875 243.011719 168.894531 C 246.382812 169.101562 249.707031 169.269531 253.078125 169.476562 C 256.070312 169.683594 259.023438 169.847656 262.019531 170.054688 C 265.847656 170.347656 269.632812 170.679688 273.457031 170.96875 C 276.203125 171.175781 278.949219 171.382812 281.691406 171.632812 C 284.523438 171.878906 287.390625 172.253906 290.21875 172.542969 C 292.714844 172.832031 295.253906 173.082031 297.75 173.414062 C 301.867188 173.910156 305.984375 174.410156 310.019531 175.363281 C 310.058594 175.363281 310.101562 175.363281 310.101562 175.363281 C 311.265625 175.652344 315.882812 177.683594 317.003906 178.429688 C 316.589844 178.597656 316.921875 179.300781 316.214844 179.257812 C 316.132812 179.257812 316.089844 179.507812 316.132812 179.632812 C 316.382812 179.964844 316.421875 180.378906 316.839844 180.667969 C 317.585938 181.25 317.503906 181.582031 316.589844 181.953125 C 317.003906 182.824219 317.753906 183.488281 318.128906 184.359375 C 318.171875 184.484375 318.378906 184.566406 318.542969 184.609375 C 319.460938 185.023438 320.25 185.601562 321.246094 185.808594 C 322.203125 186.015625 323.035156 186.640625 323.867188 187.179688 C 323.992188 187.550781 323.535156 187.425781 323.453125 187.632812 C 323.371094 187.839844 323.660156 187.964844 323.578125 188.171875 C 323.078125 188.421875 322.621094 188.046875 322.121094 188.132812 C 322.121094 188.421875 322.328125 188.464844 322.496094 188.546875 C 322.828125 188.753906 323.371094 188.796875 323.246094 189.417969 C 323.246094 189.5 323.410156 189.625 323.492188 189.707031 C 323.617188 189.832031 323.742188 189.914062 323.867188 190.039062 C 324.242188 190.289062 324.324219 190.742188 324.242188 191.074219 C 324.160156 191.449219 323.703125 191.15625 323.371094 191.40625 C 323.867188 192.402344 324.824219 193.148438 325.117188 194.351562 C 324.574219 194.433594 324.242188 194.765625 323.910156 195.136719 C 323.703125 195.386719 323.703125 195.59375 323.910156 195.84375 C 324.160156 196.175781 324.449219 196.507812 324.660156 196.878906 C 324.785156 197.167969 324.90625 197.460938 324.410156 197.667969 C 323.660156 198 323.285156 198.785156 322.660156 199.285156 C 322.496094 199.410156 322.996094 200.15625 323.203125 200.195312 C 323.371094 200.195312 323.535156 200.195312 323.703125 200.195312 C 323.828125 200.195312 323.953125 200.195312 324.117188 200.277344 C 321.164062 201.316406 318.003906 201.355469 314.882812 202.0625 C 315.21875 202.515625 315.800781 202.515625 316.214844 202.808594 C 315.882812 203.59375 316.878906 203.265625 316.964844 203.71875 C 316.589844 204.011719 316.089844 203.96875 315.632812 204.011719 C 314.175781 204.09375 312.761719 203.84375 311.347656 203.71875 C 309.394531 203.511719 307.480469 203.265625 305.527344 203.015625 C 304.195312 202.847656 302.824219 202.640625 301.492188 202.476562 C 300.949219 202.394531 300.453125 202.394531 299.910156 202.558594 C 298.996094 202.890625 297.996094 202.808594 297.039062 202.726562 C 296.417969 202.683594 295.792969 202.640625 295.167969 202.640625 C 290.054688 202.476562 284.9375 202.433594 279.820312 202.394531 C 277.785156 202.394531 275.785156 202.640625 273.789062 202.890625 C 271.878906 203.140625 269.964844 203.386719 268.050781 203.636719 C 265.761719 203.925781 263.515625 204.257812 261.230469 204.550781 C 258.816406 204.839844 256.40625 205.171875 254.035156 205.460938 C 251.703125 205.75 249.335938 206 247.003906 206.207031 C 245.132812 206.375 243.21875 206.496094 241.347656 206.621094 C 238.269531 206.828125 235.191406 206.996094 232.113281 207.203125 C 230.535156 207.285156 228.910156 207.328125 227.332031 207.410156 C 224.003906 207.574219 220.675781 207.574219 217.347656 207.699219 C 213.398438 207.867188 209.445312 207.988281 205.496094 208.113281 C 202.167969 208.238281 198.839844 208.363281 195.511719 208.488281 C 192.1875 208.613281 188.859375 208.820312 185.574219 208.984375 C 184.160156 209.066406 182.785156 209.109375 181.371094 209.191406 C 178.667969 209.398438 175.921875 209.484375 173.21875 209.691406 C 169.394531 209.980469 165.609375 210.3125 161.78125 210.601562 C 159.035156 210.808594 156.292969 211.015625 153.546875 211.265625 C 150.261719 211.554688 147.015625 211.886719 143.730469 212.175781 C 141.277344 212.382812 138.820312 212.59375 136.367188 212.839844 C 133.332031 213.128906 130.296875 213.460938 127.257812 213.753906 C 125.097656 213.960938 122.890625 214.167969 120.730469 214.417969 C 118.234375 214.664062 115.78125 214.953125 113.324219 215.285156 C 110.914062 215.578125 108.5 215.910156 106.128906 216.238281 C 103.34375 216.613281 100.558594 217.027344 97.769531 217.484375 C 93.445312 218.148438 89.117188 218.894531 84.792969 219.558594 C 83.796875 219.722656 82.796875 219.722656 81.796875 219.804688 C 80.71875 219.886719 79.59375 219.972656 78.511719 219.972656 C 75.101562 219.972656 71.691406 219.722656 68.28125 219.101562 C 67.117188 218.894531 65.910156 218.851562 64.703125 218.5625 C 64.664062 218.105469 64.953125 217.816406 65.160156 217.484375 C 65.328125 217.152344 65.578125 216.902344 65.785156 216.570312 C 66.285156 215.824219 66.203125 215.703125 65.328125 215.617188 C 64.539062 215.578125 63.746094 215.453125 62.957031 215.410156 C 62.542969 215.371094 62.417969 215.203125 62.5 214.832031 C 62.5 214.789062 62.5 214.746094 62.5 214.746094 C 62.832031 213.878906 62.5 213.339844 61.625 213.046875 C 61.585938 213.046875 61.542969 212.964844 61.5 212.839844 C 62.457031 212.261719 63.621094 212.382812 64.578125 211.722656 C 64.328125 211.265625 63.871094 211.097656 63.457031 210.851562 C 62.664062 210.351562 61.792969 210.019531 61.167969 209.273438 C 61.042969 209.109375 60.835938 209.109375 60.628906 209.066406 C 58.050781 208.734375 55.429688 208.363281 52.851562 208.03125 C 51.476562 207.824219 51.4375 207.699219 52.183594 206.539062 C 52.476562 206.082031 52.808594 205.667969 53.101562 205.253906 C 53.472656 204.671875 53.390625 204.507812 52.726562 204.507812 C 51.851562 204.507812 50.976562 204.550781 50.148438 204.507812 C 49.441406 204.507812 49.355469 204.382812 49.355469 203.679688 C 49.355469 203.636719 49.355469 203.59375 49.355469 203.59375 C 49.605469 202.765625 49.398438 202.226562 48.523438 201.980469 C 48.398438 201.9375 48.316406 201.855469 48.273438 201.648438 C 49.316406 201.066406 50.605469 201.191406 51.601562 200.445312 C 51.1875 199.945312 50.605469 199.65625 50.023438 199.324219 C 49.523438 198.992188 48.980469 198.746094 48.484375 198.371094 C 47.691406 197.832031 47.484375 197.046875 47.777344 196.132812 C 47.941406 195.675781 48.066406 195.179688 47.902344 194.765625 C 47.566406 193.851562 47.734375 192.859375 47.566406 191.945312 C 47.402344 191.15625 47.527344 191.074219 48.359375 190.992188 C 48.691406 190.949219 49.023438 190.867188 49.355469 190.828125 C 49.523438 190.785156 49.773438 190.742188 49.6875 190.535156 C 49.441406 189.914062 49.9375 189.957031 50.269531 189.871094 C 53.597656 189.375 56.925781 188.585938 60.296875 188.171875 C 63.789062 187.71875 67.242188 187.179688 70.734375 186.679688 C 73.9375 186.222656 77.140625 185.851562 80.300781 185.394531 C 82.714844 185.0625 85.085938 184.691406 87.496094 184.316406 C 88.621094 184.152344 89.785156 183.945312 90.90625 183.652344 C 88.996094 183.363281 87.121094 183.113281 85.210938 182.824219 C 84.003906 182.660156 82.753906 182.453125 81.632812 182.039062 C 81.257812 181.914062 80.925781 181.707031 80.550781 181.5 C 80.257812 181.332031 80.21875 181.082031 80.382812 180.835938 C 80.59375 180.503906 80.800781 180.171875 81.007812 179.796875 C 81.214844 179.46875 81.089844 179.300781 80.757812 179.257812 C 80.011719 179.136719 79.304688 178.84375 78.636719 178.472656 C 78.261719 178.265625 78.097656 178.015625 78.179688 177.601562 C 78.304688 176.980469 78.179688 176.480469 77.554688 176.109375 C 77.058594 175.820312 77.097656 175.609375 77.640625 175.402344 C 78.179688 175.195312 78.761719 175.03125 79.34375 174.863281 C 79.59375 174.78125 79.84375 174.78125 80.050781 174.535156 C 79.34375 174.078125 78.636719 173.664062 77.929688 173.207031 C 77.472656 172.875 77.015625 172.542969 76.808594 172.003906 C 76.640625 171.546875 76.515625 171.175781 76.722656 170.675781 C 76.972656 170.097656 76.972656 169.476562 76.765625 168.855469 C 76.476562 168.066406 76.683594 167.195312 76.558594 166.40625 C 76.515625 166.074219 76.765625 165.953125 77.015625 165.867188 C 77.640625 165.703125 78.261719 165.621094 78.722656 164.996094 C 78.96875 164.667969 79.511719 164.667969 79.925781 164.582031 C 88.328125 162.882812 96.6875 161.101562 105.089844 159.484375 C 108.832031 158.738281 112.617188 158.199219 116.402344 157.617188 C 119.398438 157.164062 122.394531 156.707031 125.347656 156.292969 C 127.800781 155.960938 130.210938 155.710938 132.667969 155.421875 C 135.078125 155.132812 137.492188 154.800781 139.863281 154.507812 C 142.316406 154.21875 144.726562 153.929688 147.183594 153.636719 C 149.71875 153.347656 152.257812 153.015625 154.792969 152.726562 C 156.789062 152.476562 158.746094 152.269531 160.742188 152.0625 C 163.320312 151.8125 165.898438 151.523438 168.476562 151.316406 C 170.347656 151.152344 172.179688 150.984375 174.050781 150.902344 C 178.5 150.652344 182.953125 150.40625 187.402344 150.238281 C 191.726562 150.074219 196.054688 149.90625 200.378906 149.867188 C 203.625 149.867188 206.910156 149.660156 210.152344 149.742188 C 214.4375 149.824219 218.722656 149.824219 223.007812 149.949219 C 225.792969 150.03125 228.578125 150.03125 231.367188 150.113281 C 235.773438 150.238281 240.226562 150.363281 244.632812 150.527344 C 247.960938 150.652344 251.289062 150.820312 254.617188 150.945312 C 257.363281 151.027344 260.148438 151.191406 262.894531 151.316406 C 266.179688 151.484375 269.464844 151.648438 272.75 151.898438 C 276.078125 152.144531 279.445312 152.394531 282.773438 152.808594 C 285.019531 153.058594 287.265625 153.222656 289.511719 153.472656 C 292.214844 153.761719 294.917969 154.09375 297.625 154.382812 C 300.078125 154.675781 302.488281 154.921875 304.945312 155.253906 C 307.4375 155.585938 309.933594 155.917969 312.429688 156.292969 C 315.132812 156.707031 317.796875 157.121094 320.5 157.617188 C 322.785156 158.074219 324.867188 159.027344 326.90625 160.023438 C 327.070312 160.105469 327.238281 160.230469 327.402344 160.355469 C 328.070312 160.8125 328.070312 160.933594 327.238281 161.351562 C 327.488281 161.640625 327.695312 161.929688 327.945312 162.179688 C 328.070312 162.34375 328.234375 162.59375 328.109375 162.71875 C 327.695312 163.171875 328.027344 163.464844 328.234375 163.796875 C 328.527344 164.210938 328.652344 164.542969 328.152344 164.875 C 328.070312 164.914062 328.027344 164.996094 327.945312 165.082031 C 327.488281 165.535156 327.488281 165.535156 328.109375 166.074219 C 326.613281 166.699219 325.03125 166.65625 323.492188 167.070312 C 323.660156 167.402344 324.117188 167.402344 324.410156 167.734375 C 323.617188 168.273438 322.703125 168.273438 321.832031 168.398438 C 319.292969 168.6875 316.714844 168.769531 314.175781 168.8125 C 310.058594 168.855469 305.941406 169.019531 301.824219 168.9375 C 294.917969 168.8125 288.058594 168.894531 281.152344 168.769531 C 276.617188 168.6875 272.125 168.523438 267.59375 168.355469 C 264.390625 168.230469 261.144531 168.105469 257.945312 167.984375 C 253.742188 167.777344 249.582031 167.652344 245.382812 167.359375 C 243.636719 167.238281 241.847656 167.195312 240.101562 167.113281 C 238.4375 167.03125 236.773438 167.195312 235.109375 167.238281 C 231.449219 167.320312 227.789062 167.359375 224.128906 167.484375 C 223.007812 167.527344 221.882812 167.609375 220.761719 167.609375 C 220.09375 167.609375 219.429688 167.570312 218.761719 167.609375 C 218.140625 167.652344 217.515625 167.484375 216.890625 167.734375 C 216.890625 167.816406 216.890625 167.898438 216.890625 167.984375 C 218.097656 167.859375 219.511719 167.859375 220.925781 167.859375 Z M 220.925781 167.859375 " fill-opacity="1" fill-rule="nonzero"/></g><path stroke-linecap="butt" transform="matrix(1.501356, 0, 0, 1.5, 58.23871, 160.8148)" fill="none" stroke-linejoin="miter" d="M -0.000285759 0.00107094 L 172.84869 0.00107094 " stroke="#000000" stroke-width="1" stroke-opacity="1" stroke-miterlimit="4"/><path stroke-linecap="butt" transform="matrix(1.505688, 0, 0, 1.5, 58.23871, 214.185176)" fill="none" stroke-linejoin="miter" d="M -0.000284937 -0.00105452 L 45.330437 -0.00105452 " stroke="#000000" stroke-width="1" stroke-opacity="1" stroke-miterlimit="4"/><path stroke-linecap="butt" transform="matrix(0.000000000000000092, 1.496796, -1.5, 0.000000000000000092, 57.487105, 160.066396)" fill="none" stroke-linejoin="miter" d="M 0.00000692214 -0.00078435 L 36.580745 -0.00078435 " stroke="#000000" stroke-width="1" stroke-opacity="1" stroke-miterlimit="4"/><path stroke-linecap="butt" transform="matrix(0.000000000000000092, 1.496796, -1.5, 0.000000000000000092, 317.509671, 160.066396)" fill="none" stroke-linejoin="miter" d="M 0.00000692214 0.0012389 L 36.580745 0.0012389 " stroke="#000000" stroke-width="1" stroke-opacity="1" stroke-miterlimit="4"/><path stroke-linecap="butt" transform="matrix(1.505688, 0, 0, 1.5, 250.265261, 215.685175)" fill="none" stroke-linejoin="miter" d="M 0.000241839 -0.00105446 L 45.330964 -0.00105446 " stroke="#000000" stroke-width="1" stroke-opacity="1" stroke-miterlimit="4"/><g fill="#000000" fill-opacity="1"><g transform="translate(115.77869, 196.876451)"><g><path d="M 22.605469 -21.085938 L 22.539062 -21.085938 L 13.265625 -3.53125 L 4.125 -21.085938 L 4.027344 -21.085938 L 1.1875 0.03125 L 1.714844 0.03125 L 3.925781 -16.335938 L 12.144531 -0.527344 L 12.277344 -0.527344 L 20.757812 -16.597656 L 22.703125 0.03125 L 25.078125 0.03125 Z M 22.605469 -21.085938 "/></g></g></g><g fill="#000000" fill-opacity="1"><g transform="translate(145.511649, 196.876451)"><g><path d="M 12.078125 -20.164062 L 12.078125 -20.691406 L 1.585938 -20.691406 L 1.585938 0.03125 L 12.078125 0.03125 L 12.078125 -0.496094 L 3.925781 -0.496094 L 3.925781 -10.527344 L 11.1875 -10.527344 L 11.1875 -11.054688 L 3.925781 -11.054688 L 3.925781 -20.164062 Z M 12.078125 -20.164062 "/></g></g></g><g fill="#000000" fill-opacity="1"><g transform="translate(162.308631, 196.876451)"><g><path d="M 22.605469 -21.085938 L 22.539062 -21.085938 L 13.265625 -3.53125 L 4.125 -21.085938 L 4.027344 -21.085938 L 1.1875 0.03125 L 1.714844 0.03125 L 3.925781 -16.335938 L 12.144531 -0.527344 L 12.277344 -0.527344 L 20.757812 -16.597656 L 22.703125 0.03125 L 25.078125 0.03125 Z M 22.605469 -21.085938 "/></g></g></g><g fill="#000000" fill-opacity="1"><g transform="translate(192.041587, 196.876451)"><g><path d="M 12.671875 -21.085938 C 6.730469 -21.085938 1.320312 -17.917969 1.320312 -10.261719 C 1.320312 -1.453125 8.515625 0.628906 12.671875 0.628906 C 16.796875 0.628906 24.023438 -1.453125 24.023438 -10.261719 C 24.023438 -17.917969 18.578125 -21.085938 12.671875 -21.085938 Z M 12.671875 0.0664062 C 8.941406 0.0664062 3.730469 -1.585938 3.730469 -10.261719 C 3.730469 -18.808594 9.472656 -20.558594 12.671875 -20.558594 C 15.871094 -20.558594 21.613281 -18.808594 21.613281 -10.261719 C 21.613281 -1.585938 16.367188 0.0664062 12.671875 0.0664062 Z M 12.671875 0.0664062 "/></g></g></g><g fill="#000000" fill-opacity="1"><g transform="translate(220.883546, 196.876451)"><g><path d="M 16.105469 0.03125 L 8.347656 -9.734375 C 10.789062 -10.066406 14.488281 -11.253906 14.488281 -15.511719 C 14.488281 -20.0625 9.535156 -20.691406 7.855469 -20.691406 C 6.238281 -20.691406 1.585938 -20.691406 1.585938 -20.691406 L 1.585938 0.03125 L 3.925781 0.03125 L 3.925781 -9.601562 L 5.445312 -9.601562 L 13.101562 0.03125 Z M 3.925781 -20.164062 L 6.601562 -20.164062 C 9.964844 -20.164062 11.980469 -18.777344 11.980469 -15.148438 C 11.980469 -11.449219 9.601562 -10.132812 5.742188 -10.132812 L 3.925781 -10.132812 Z M 3.925781 -20.164062 "/></g></g></g><g fill="#000000" fill-opacity="1"><g transform="translate(241.409531, 196.876451)"><g><path d="M 16.070312 -20.691406 L 9.800781 -10.164062 L 3.761719 -20.691406 L 1.054688 -20.691406 L 7.722656 -9.007812 L 7.722656 0.03125 L 10.097656 0.03125 L 10.097656 -9.636719 L 16.730469 -20.691406 Z M 16.070312 -20.691406 "/></g></g></g><g fill="#000000" fill-opacity="1"><g transform="translate(159.744815, 219.176426)"><g><path d="M 6.28125 -5.5625 L 6.28125 -4.511719 L 10.496094 -4.511719 C 10.164062 -2.484375 8.414062 -0.980469 6.296875 -0.980469 C 3.9375 -0.980469 2.027344 -2.867188 2.027344 -5.25 C 2.027344 -7.628906 3.9375 -9.515625 6.296875 -9.515625 C 7.890625 -9.515625 9.289062 -8.660156 10.007812 -7.363281 L 10.96875 -7.90625 C 10.058594 -9.535156 8.308594 -10.636719 6.296875 -10.636719 C 3.304688 -10.636719 0.910156 -8.222656 0.910156 -5.25 C 0.910156 -2.273438 3.304688 0.140625 6.296875 0.140625 C 9.273438 0.140625 11.6875 -2.273438 11.6875 -5.25 L 11.6875 -5.5625 Z M 6.28125 -5.5625 "/></g></g></g><g fill="#000000" fill-opacity="1"><g transform="translate(176.646266, 219.176426)"><g><path d="M 7.609375 0 L 8.835938 0 L 5.039062 -10.496094 L 3.796875 -10.496094 L 0 0 L 1.222656 0 L 2.082031 -2.449219 L 6.753906 -2.449219 Z M 2.449219 -3.515625 L 4.425781 -9.167969 L 6.386719 -3.515625 Z M 2.449219 -3.515625 "/></g></g></g><g fill="#000000" fill-opacity="1"><g transform="translate(189.804823, 219.176426)"><g><path d="M 10.53125 -10.496094 L 6.488281 -1.347656 L 2.464844 -10.496094 L 1.277344 -10.496094 L 1.277344 0 L 2.398438 0 L 2.398438 -8.292969 L 6.019531 0 L 6.945312 0 L 10.601562 -8.257812 L 10.601562 0 L 11.703125 0 L 11.703125 -10.496094 Z M 10.53125 -10.496094 "/></g></g></g><g fill="#000000" fill-opacity="1"><g transform="translate(207.108543, 219.176426)"><g><path d="M 7.101562 -9.410156 L 7.101562 -10.496094 L 1.363281 -10.496094 L 1.363281 0 L 7.101562 0 L 7.101562 -1.085938 L 2.484375 -1.085938 L 2.484375 -4.707031 L 6.507812 -4.707031 L 6.507812 -5.789062 L 2.484375 -5.789062 L 2.484375 -9.410156 Z M 7.101562 -9.410156 "/></g></g></g></svg>