<svg xmlns="http://www.w3.org/2000/svg" xmlns:xlink="http://www.w3.org/1999/xlink" width="500" zoomAndPan="magnify" viewBox="0 0 375 374.999991" height="500" preserveAspectRatio="xMidYMid meet" version="1.0"><defs><clipPath id="ae40b1d827"><path d="M 79.628906 84.730469 L 295.988281 84.730469 L 295.988281 290.269531 L 79.628906 290.269531 Z M 79.628906 84.730469 " clip-rule="nonzero"/></clipPath></defs><rect x="-37.5" width="450" fill="#ffffff" y="-37.499999" height="449.999989" fill-opacity="1"/><rect x="-37.5" width="450" fill="#ffffff" y="-37.499999" height="449.999989" fill-opacity="1"/><rect x="-37.5" width="450" fill="#ffffff" y="-37.499999" height="449.999989" fill-opacity="1"/><g clip-path="url(#ae40b1d827)"><path fill="#ffbeb3" d="M 191.0625 86.742188 L 221.597656 148.558594 C 222.0625 149.636719 223.144531 150.410156 224.386719 150.566406 L 292.734375 160.457031 C 295.679688 160.917969 296.917969 164.628906 294.75 166.636719 L 245.308594 214.699219 C 244.378906 215.472656 244.070312 216.707031 244.222656 217.945312 L 255.847656 285.941406 C 256.3125 288.875 253.214844 291.195312 250.578125 289.804688 L 189.359375 257.660156 C 188.273438 257.042969 187.035156 257.042969 185.949219 257.660156 L 124.730469 289.804688 C 122.09375 291.195312 118.996094 288.875 119.460938 285.941406 L 131.085938 217.945312 C 131.238281 216.707031 130.929688 215.625 130 214.699219 L 80.714844 166.636719 C 78.542969 164.472656 79.785156 160.917969 82.726562 160.457031 L 151.078125 150.566406 C 152.316406 150.410156 153.246094 149.636719 153.867188 148.558594 L 184.398438 86.742188 C 185.792969 84.113281 189.667969 84.113281 191.0625 86.742188 Z M 191.0625 86.742188 " fill-opacity="1" fill-rule="nonzero"/></g></svg>