<svg xmlns="http://www.w3.org/2000/svg" xmlns:xlink="http://www.w3.org/1999/xlink" width="500" zoomAndPan="magnify" viewBox="0 0 375 374.999991" height="500" preserveAspectRatio="xMidYMid meet" version="1.0"><rect x="-37.5" width="450" fill="#ffffff" y="-37.499999" height="449.999989" fill-opacity="1"/><rect x="-37.5" width="450" fill="#ffffff" y="-37.499999" height="449.999989" fill-opacity="1"/><rect x="-37.5" width="450" fill="#ffffff" y="-37.499999" height="449.999989" fill-opacity="1"/><path fill="#f6b7ac" d="M 330.359375 214.671875 C 328.511719 205.464844 321.292969 195.78125 311.8125 193.628906 C 306.382812 192.375 299.585938 194.347656 295.828125 198.59375 C 295.46875 198.113281 295.113281 197.636719 294.753906 197.15625 C 294.875 196.679688 294.933594 196.140625 294.875 195.542969 C 289.804688 153.339844 259.089844 113.46875 217.941406 101.277344 C 179.949219 89.976562 136.054688 102.351562 110.769531 133.316406 C 107.011719 137.917969 103.789062 142.820312 101.167969 148.082031 C 99.316406 151.007812 97.707031 154.058594 96.453125 157.347656 C 94.070312 163.441406 92.996094 169.839844 92.21875 176.355469 C 91.863281 179.703125 91.566406 182.988281 91.265625 186.335938 C 91.207031 187.292969 91.085938 188.308594 90.96875 189.265625 C 90.910156 189.207031 90.789062 189.148438 90.730469 189.148438 C 86.078125 186.335938 80.472656 185.859375 75.222656 186.816406 C 65.265625 188.609375 56.554688 195.363281 52.976562 204.75 C 50.890625 204.511719 48.683594 204.6875 46.65625 205.109375 C 40.335938 206.542969 34.847656 211.683594 33.238281 218.019531 C 30.078125 230.332031 43.734375 241.570312 55.183594 238.164062 C 52.261719 245.996094 60.613281 253.046875 68.125 255.320312 C 76.117188 257.769531 88.640625 257.292969 94.726562 250.539062 C 97.410156 255.679688 104.625 258.25 109.933594 258.488281 C 116.730469 258.847656 125.976562 256.394531 129.019531 249.699219 C 138.976562 256.515625 154.664062 250.121094 155.257812 237.328125 C 155.558594 231.171875 152.457031 224.59375 148.460938 220.050781 C 146.492188 217.78125 143.867188 215.925781 140.945312 215.269531 C 139.515625 214.910156 137.546875 214.792969 135.875 215.210938 C 135.757812 212.398438 134.683594 209.828125 133.015625 207.558594 C 133.074219 203.136719 132.835938 198.832031 133.847656 194.46875 C 135.042969 189.265625 136.769531 184.246094 138.976562 179.402344 C 142.914062 170.558594 148.101562 162.726562 156.511719 157.523438 C 166.113281 151.546875 178.519531 149.574219 189.550781 151.726562 C 200.882812 153.9375 210.84375 160.394531 218.953125 168.464844 C 227.78125 177.25 234.398438 187.832031 239.351562 199.191406 C 237.023438 199.726562 234.816406 200.742188 232.910156 202 C 226.945312 206.125 222.710938 214.371094 225.992188 220.949219 C 222.53125 221.1875 218.894531 222.921875 216.925781 224.832031 C 213.40625 228.300781 211.976562 233.621094 212.453125 238.464844 C 212.929688 243.484375 215.136719 248.386719 219.371094 251.316406 C 222.652344 253.527344 227.125 254.183594 230.582031 252.570312 C 230.523438 256.277344 232.132812 259.804688 235.355469 262.195312 C 239.945312 265.542969 246.03125 266.140625 251.515625 265.601562 C 257.660156 264.945312 263.742188 262.972656 268.632812 259.144531 C 270.660156 257.589844 273.582031 254.304688 274.835938 251.015625 C 282.828125 255.738281 295.410156 253.886719 299.882812 245.21875 C 302.507812 246.773438 305.964844 247.128906 308.769531 246.773438 C 313.480469 246.175781 317.835938 243.78125 321.53125 240.792969 C 329.226562 234.457031 332.328125 224.414062 330.359375 214.671875 Z M 257.121094 137.621094 C 263.621094 145.152344 269.347656 153.222656 273.820312 162.070312 C 278.414062 171.15625 281.394531 180.777344 283.660156 190.640625 C 278.890625 189.328125 273.640625 189.207031 268.8125 190.28125 C 268.8125 189.863281 268.75 189.503906 268.574219 189.027344 C 263.621094 173.367188 253.78125 158.601562 242.152344 147.125 C 230.34375 135.46875 215.316406 126.320312 199.09375 122.675781 C 170.347656 116.21875 138.441406 128.113281 122.933594 153.640625 C 120.3125 158.003906 118.222656 162.605469 116.613281 167.449219 C 116.015625 168.644531 115.421875 169.839844 114.882812 171.09375 C 111.246094 179.285156 109.21875 187.832031 109.695312 196.859375 C 106.117188 196.917969 102.480469 197.695312 99.199219 199.128906 C 98.421875 197.039062 97.230469 195.066406 95.738281 193.332031 C 95.800781 192.433594 95.859375 191.597656 95.917969 190.703125 C 96.394531 188.25 96.574219 185.5625 96.753906 183.109375 C 98.839844 168.464844 103.730469 154.117188 112.496094 142.34375 C 122.457031 128.953125 137.425781 118.492188 152.875 112.394531 C 189.253906 97.929688 231.359375 107.851562 257.121094 137.621094 Z M 139.691406 221.066406 C 141.78125 221.246094 143.570312 222.503906 145.0625 223.878906 C 148.402344 227.105469 150.726562 232.304688 150.605469 236.96875 C 150.488281 241.988281 147.148438 245.996094 142.496094 247.488281 C 138.023438 248.921875 133.3125 248.207031 128.78125 247.191406 C 128.125 246.53125 127.109375 246.292969 126.273438 246.773438 C 121.265625 249.941406 116.851562 252.929688 110.648438 252.988281 C 107.785156 252.988281 104.863281 252.570312 102.300781 251.195312 C 100.035156 250 98.601562 248.085938 96.933594 246.234375 C 96.695312 244.917969 95.082031 244.023438 93.832031 245.21875 C 87.925781 251.015625 78.742188 251.914062 71.050781 250.359375 C 67.351562 249.640625 63.535156 248.445312 60.789062 245.753906 C 58.347656 243.363281 57.867188 240.136719 58.105469 236.910156 C 59.777344 235.953125 59.121094 232.785156 57.035156 233.023438 C 49.339844 233.800781 36.695312 229.796875 39.140625 219.632812 C 40.214844 215.210938 44.03125 212.042969 48.265625 210.847656 C 50.414062 210.25 52.441406 210.25 54.648438 210.546875 C 56.617188 210.847656 59.597656 211.324219 61.269531 212.398438 C 61.984375 212.878906 62.996094 211.921875 62.460938 211.203125 C 60.492188 208.632812 59.300781 206.601562 56.019531 205.464844 C 55.78125 205.40625 55.542969 205.347656 55.363281 205.285156 C 59.71875 198.710938 67.648438 193.808594 75.105469 192.375 C 78.980469 191.65625 83.15625 191.835938 86.675781 193.75 C 90.550781 195.902344 91.804688 199.308594 93.59375 202.777344 C 92.398438 203.910156 91.386719 205.167969 90.550781 206.601562 C 89.476562 208.453125 87.808594 212.042969 89.238281 214.074219 C 89.476562 214.371094 89.835938 214.492188 90.191406 214.3125 C 91.921875 213.417969 92.816406 210.726562 94.011719 209.230469 C 94.964844 208.097656 96.097656 207.140625 97.351562 206.304688 C 98.246094 206.242188 99.140625 205.765625 99.617188 204.988281 C 103.492188 202.957031 108.085938 202.476562 112.378906 202.894531 C 116.792969 203.375 121.265625 204.808594 124.722656 207.617188 C 128.660156 210.785156 129.851562 215.089844 131.402344 219.691406 C 131.761719 220.769531 132.773438 221.246094 133.667969 221.1875 C 135.699219 222.203125 137.488281 220.886719 139.691406 221.066406 Z M 194.324219 144.851562 C 181.621094 141.804688 167.304688 143.476562 155.734375 149.695312 C 145.835938 155.074219 138.859375 163.800781 134.445312 174.023438 C 131.820312 180 129.792969 186.398438 129.078125 192.914062 C 128.71875 196.261719 128.421875 200.207031 129.257812 203.671875 C 125.320312 200.445312 120.191406 198.234375 115.597656 197.335938 C 115.597656 197.21875 115.597656 197.097656 115.597656 196.917969 C 115.003906 188.25 116.671875 179.941406 120.070312 171.992188 C 121.683594 168.226562 123.53125 164.578125 125.261719 160.871094 C 125.679688 160.035156 126.035156 159.140625 126.394531 158.242188 C 132.359375 148.558594 140.828125 140.488281 150.964844 135.167969 C 163.25 128.832031 178.28125 126.261719 191.9375 128.234375 C 207.324219 130.445312 221.101562 138.457031 232.3125 149.035156 C 244.894531 160.871094 253.902344 175.160156 260.460938 191.121094 C 260.699219 191.71875 261.058594 192.253906 261.476562 192.675781 C 258.671875 194.109375 256.167969 196.140625 254.617188 198.832031 C 254.082031 199.789062 253.722656 200.804688 253.484375 201.820312 C 251.992188 200.386719 250.144531 199.488281 248.117188 198.949219 C 239.289062 175.398438 219.847656 151.007812 194.324219 144.851562 Z M 317.953125 235.472656 C 315.507812 237.445312 312.644531 239.179688 309.542969 239.957031 C 305.726562 240.914062 304 239.417969 300.777344 237.984375 C 298.09375 236.789062 295.589844 239.179688 296.839844 241.929688 C 296.839844 241.988281 296.902344 242.050781 296.902344 242.050781 C 293.023438 244.738281 289.027344 246.953125 284.019531 246.953125 C 278.652344 247.011719 273.703125 244.203125 270.125 240.316406 C 269.230469 239.359375 267.855469 240.375 268.097656 241.511719 C 268.394531 243.125 268.992188 244.558594 269.707031 245.875 C 268.992188 247.128906 268.632812 248.804688 267.976562 249.941406 C 267.023438 251.613281 265.710938 252.929688 264.160156 254.066406 C 260.582031 256.636719 256.109375 258.070312 251.8125 258.546875 C 247.9375 258.964844 243.464844 258.785156 239.886719 256.992188 C 236.308594 255.199219 234.9375 252.152344 234.875 248.207031 C 234.875 247.371094 234.398438 246.832031 233.804688 246.652344 C 233.386719 246.234375 232.789062 245.933594 232.191406 245.933594 C 228.851562 245.695312 225.632812 246.953125 223.070312 244.917969 C 221.21875 243.425781 219.90625 240.316406 219.609375 237.6875 C 219.25 234.695312 219.90625 231.769531 221.933594 229.496094 C 224.796875 226.269531 229.09375 227.644531 232.191406 225.132812 C 232.671875 224.773438 232.789062 223.816406 232.433594 223.28125 C 231.894531 222.503906 231.179688 221.964844 230.402344 221.605469 C 230.464844 216.167969 231.894531 211.027344 236.726562 207.796875 C 242.332031 204.089844 247.640625 206.0625 253.066406 208.992188 C 253.605469 209.292969 254.140625 209.351562 254.617188 209.292969 C 255.09375 210.1875 255.75 211.027344 256.527344 211.742188 C 257.359375 212.460938 258.433594 211.742188 258.253906 210.726562 C 257.71875 207.082031 257.480469 204.210938 260.164062 201.402344 C 262.667969 198.769531 266.367188 197.394531 269.886719 196.796875 C 273.941406 196.082031 278.292969 196.320312 282.230469 197.695312 C 286.644531 199.191406 288.96875 202.238281 292.191406 205.285156 C 292.488281 205.585938 292.785156 205.765625 293.144531 205.882812 C 293.324219 206.660156 294.398438 206.722656 294.8125 206.125 C 296.542969 205.882812 297.976562 204.269531 297.496094 202.179688 C 301.375 198.351562 307.933594 196.917969 312.707031 199.191406 C 319.386719 202.359375 324.15625 209.589844 325.230469 216.824219 C 326.242188 223.996094 323.679688 230.871094 317.953125 235.472656 Z M 317.953125 235.472656 " fill-opacity="1" fill-rule="nonzero"/></svg>