<svg xmlns="http://www.w3.org/2000/svg" xmlns:xlink="http://www.w3.org/1999/xlink" width="500" zoomAndPan="magnify" viewBox="0 0 375 374.999991" height="500" preserveAspectRatio="xMidYMid meet" version="1.0"><defs><clipPath id="4b36f0afb7"><path d="M 213 196 L 347.960938 196 L 347.960938 255 L 213 255 Z M 213 196 " clip-rule="nonzero"/></clipPath><clipPath id="50c6ee22cd"><path d="M 108 91 L 292 91 L 292 275.222656 L 108 275.222656 Z M 108 91 " clip-rule="nonzero"/></clipPath><clipPath id="13fc031e47"><path d="M 134 69.722656 L 149 69.722656 L 149 84 L 134 84 Z M 134 69.722656 " clip-rule="nonzero"/></clipPath></defs><rect x="-37.5" width="450" fill="#ffffff" y="-37.499999" height="449.999989" fill-opacity="1"/><rect x="-37.5" width="450" fill="#ffffff" y="-37.499999" height="449.999989" fill-opacity="1"/><rect x="-37.5" width="450" fill="#ffffff" y="-37.499999" height="449.999989" fill-opacity="1"/><g clip-path="url(#4b36f0afb7)"><path fill="#fff5ef" d="M 338.558594 218.035156 C 330.40625 215.953125 311.359375 221.558594 309.257812 214.84375 C 303.796875 197.414062 287.640625 192.15625 279.191406 201.324219 C 275.867188 204.929688 274.21875 211.789062 269.171875 212.878906 C 261.402344 214.558594 253.71875 206.617188 245.65625 210.765625 C 240.125 213.609375 243.789062 221.503906 238.839844 224.53125 C 232.613281 228.34375 214.214844 221.839844 213.265625 234.851562 C 212.511719 245.261719 231.082031 247.617188 239.53125 246.457031 C 243.121094 245.96875 247.511719 243.1875 251.046875 243.722656 C 257.277344 244.667969 259.742188 252.195312 267.101562 252.195312 C 275.539062 252.195312 279.785156 242.652344 288.925781 244.65625 C 299.988281 247.082031 303.839844 257.03125 317.878906 253.152344 C 323.339844 251.644531 325.425781 245.601562 329.992188 242.765625 C 335.363281 239.433594 346.183594 237.941406 347.125 231.144531 C 347.972656 225.023438 344.9375 219.664062 338.558594 218.035156 Z M 338.558594 218.035156 " fill-opacity="1" fill-rule="evenodd"/></g><g clip-path="url(#50c6ee22cd)"><path fill="#dcb9a6" d="M 184.574219 91.253906 C 166.359375 105.730469 154.675781 128.058594 154.675781 153.085938 C 154.675781 196.683594 190.121094 232.078125 233.78125 232.078125 C 256.285156 232.078125 276.605469 222.675781 291.015625 207.59375 C 280.019531 246.546875 244.140625 275.136719 201.632812 275.136719 C 150.382812 275.136719 108.773438 233.585938 108.773438 182.410156 C 108.773438 137.054688 141.460938 99.261719 184.574219 91.253906 Z M 184.574219 91.253906 " fill-opacity="1" fill-rule="evenodd"/></g><path fill="#d9af98" d="M 216.140625 96.042969 C 216.261719 95.84375 216.476562 95.726562 216.707031 95.726562 C 216.9375 95.726562 217.152344 95.84375 217.273438 96.042969 L 221.484375 102.914062 L 229.332031 104.789062 C 229.554688 104.84375 229.734375 105.007812 229.808594 105.230469 C 229.878906 105.449219 229.832031 105.6875 229.679688 105.863281 L 224.4375 111.988281 L 225.074219 120.019531 C 225.09375 120.25 224.992188 120.472656 224.804688 120.605469 C 224.617188 120.742188 224.375 120.769531 224.160156 120.683594 L 216.707031 117.59375 L 209.253906 120.683594 C 209.042969 120.769531 208.796875 120.742188 208.613281 120.605469 C 208.425781 120.472656 208.320312 120.25 208.339844 120.019531 L 208.980469 111.988281 L 203.734375 105.863281 C 203.585938 105.6875 203.535156 105.449219 203.609375 105.230469 C 203.679688 105.007812 203.859375 104.84375 204.085938 104.789062 L 211.929688 102.914062 Z M 216.140625 96.042969 " fill-opacity="1" fill-rule="evenodd"/><path fill="#d9af98" d="M 250.144531 150.6875 C 250.210938 150.578125 250.324219 150.515625 250.449219 150.515625 C 250.574219 150.515625 250.691406 150.578125 250.753906 150.6875 L 253.027344 154.398438 L 257.265625 155.410156 C 257.386719 155.4375 257.484375 155.527344 257.523438 155.644531 C 257.558594 155.765625 257.535156 155.894531 257.453125 155.988281 L 254.621094 159.292969 L 254.96875 163.632812 C 254.976562 163.753906 254.921875 163.875 254.820312 163.949219 C 254.71875 164.023438 254.589844 164.035156 254.472656 163.988281 L 250.449219 162.320312 L 246.425781 163.988281 C 246.3125 164.035156 246.179688 164.023438 246.078125 163.949219 C 245.976562 163.875 245.921875 163.753906 245.933594 163.632812 L 246.277344 159.292969 L 243.445312 155.988281 C 243.363281 155.894531 243.339844 155.765625 243.378906 155.644531 C 243.414062 155.527344 243.511719 155.4375 243.632812 155.410156 L 247.871094 154.398438 Z M 250.144531 150.6875 " fill-opacity="1" fill-rule="evenodd"/><path fill="#d9af98" d="M 274.765625 108.066406 L 271.765625 112.960938 C 271.765625 112.960938 266.179688 114.296875 266.179688 114.296875 C 265.75 114.398438 265.40625 114.714844 265.269531 115.136719 C 265.132812 115.554688 265.222656 116.015625 265.511719 116.347656 C 265.511719 116.347656 269.246094 120.710938 269.246094 120.710938 C 269.246094 120.710938 268.789062 126.429688 268.789062 126.429688 C 268.757812 126.867188 268.953125 127.292969 269.308594 127.554688 C 269.667969 127.8125 270.132812 127.867188 270.539062 127.699219 C 270.539062 127.699219 275.847656 125.5 275.847656 125.5 C 275.847656 125.5 281.152344 127.699219 281.152344 127.699219 C 281.5625 127.867188 282.027344 127.8125 282.382812 127.554688 C 282.742188 127.292969 282.9375 126.867188 282.902344 126.429688 C 282.902344 126.429688 282.449219 120.710938 282.449219 120.710938 C 282.449219 120.710938 286.183594 116.347656 286.183594 116.347656 C 286.46875 116.015625 286.5625 115.554688 286.425781 115.136719 C 286.289062 114.714844 285.945312 114.398438 285.515625 114.296875 C 285.515625 114.296875 279.925781 112.960938 279.925781 112.960938 C 279.925781 112.960938 276.929688 108.066406 276.929688 108.066406 C 276.699219 107.691406 276.289062 107.460938 275.847656 107.460938 C 275.40625 107.460938 274.996094 107.691406 274.765625 108.066406 Z M 275.847656 109.246094 L 278.78125 114.035156 C 278.886719 114.207031 279.058594 114.332031 279.257812 114.378906 L 284.726562 115.6875 L 281.070312 119.953125 C 280.9375 120.109375 280.875 120.308594 280.890625 120.511719 L 281.335938 126.109375 L 276.140625 123.957031 C 275.953125 123.878906 275.742188 123.878906 275.550781 123.957031 L 270.359375 126.109375 L 270.804688 120.511719 C 270.820312 120.308594 270.753906 120.109375 270.621094 119.953125 L 266.96875 115.6875 L 272.433594 114.378906 C 272.632812 114.332031 272.804688 114.207031 272.914062 114.035156 Z M 275.847656 109.246094 " fill-opacity="1" fill-rule="evenodd"/><g clip-path="url(#13fc031e47)"><path fill="#d9af98" d="M 140.613281 70.324219 L 138.714844 73.425781 C 138.714844 73.425781 135.171875 74.269531 135.171875 74.269531 C 134.804688 74.359375 134.503906 74.632812 134.386719 74.996094 C 134.269531 75.359375 134.347656 75.753906 134.597656 76.042969 C 134.597656 76.042969 136.964844 78.808594 136.964844 78.808594 C 136.964844 78.808594 136.675781 82.433594 136.675781 82.433594 C 136.644531 82.8125 136.8125 83.179688 137.121094 83.402344 C 137.429688 83.625 137.832031 83.671875 138.183594 83.527344 C 138.183594 83.527344 141.546875 82.132812 141.546875 82.132812 C 141.546875 82.132812 144.910156 83.527344 144.910156 83.527344 C 145.261719 83.671875 145.664062 83.625 145.972656 83.402344 C 146.28125 83.179688 146.453125 82.8125 146.421875 82.433594 C 146.421875 82.433594 146.132812 78.808594 146.132812 78.808594 C 146.132812 78.808594 148.5 76.042969 148.5 76.042969 C 148.75 75.753906 148.828125 75.359375 148.710938 74.996094 C 148.59375 74.632812 148.292969 74.359375 147.921875 74.269531 C 147.921875 74.269531 144.382812 73.425781 144.382812 73.425781 C 144.382812 73.425781 142.480469 70.324219 142.480469 70.324219 C 142.28125 70 141.929688 69.800781 141.546875 69.800781 C 141.167969 69.800781 140.8125 70 140.613281 70.324219 Z M 141.546875 71.742188 L 143.238281 74.5 C 143.34375 74.671875 143.515625 74.796875 143.714844 74.84375 L 146.859375 75.597656 L 144.757812 78.050781 C 144.625 78.207031 144.558594 78.40625 144.574219 78.609375 L 144.832031 81.832031 L 141.84375 80.59375 C 141.65625 80.515625 141.441406 80.515625 141.253906 80.59375 L 138.265625 81.832031 L 138.523438 78.609375 C 138.539062 78.40625 138.472656 78.207031 138.339844 78.050781 L 136.238281 75.597656 L 139.382812 74.84375 C 139.582031 74.796875 139.753906 74.671875 139.859375 74.5 Z M 141.546875 71.742188 " fill-opacity="1" fill-rule="evenodd"/></g><path fill="#fff5ef" d="M 153.011719 194.085938 C 144.859375 192.003906 125.8125 197.609375 123.710938 190.894531 C 118.25 173.464844 102.09375 168.207031 93.644531 177.375 C 90.320312 180.980469 88.671875 187.839844 83.625 188.929688 C 75.855469 190.605469 68.171875 182.667969 60.109375 186.816406 C 54.578125 189.660156 58.242188 197.554688 53.292969 200.582031 C 47.066406 204.394531 28.667969 197.890625 27.71875 210.902344 C 26.964844 221.3125 45.535156 223.667969 53.984375 222.507812 C 57.574219 222.015625 61.964844 219.238281 65.5 219.773438 C 71.730469 220.71875 74.195312 228.246094 81.554688 228.246094 C 89.992188 228.246094 94.238281 218.703125 103.378906 220.707031 C 114.441406 223.132812 118.292969 233.078125 132.332031 229.203125 C 137.792969 227.695312 139.878906 221.652344 144.445312 218.816406 C 149.816406 215.484375 160.636719 213.992188 161.578125 207.195312 C 162.425781 201.074219 159.390625 195.714844 153.011719 194.085938 Z M 153.011719 194.085938 " fill-opacity="1" fill-rule="evenodd"/></svg>