<svg xmlns="http://www.w3.org/2000/svg" xmlns:xlink="http://www.w3.org/1999/xlink" width="500" zoomAndPan="magnify" viewBox="0 0 375 374.999991" height="500" preserveAspectRatio="xMidYMid meet" version="1.0"><rect x="-37.5" width="450" fill="#ffffff" y="-37.499999" height="449.999989" fill-opacity="1"/><rect x="-37.5" width="450" fill="#ffffff" y="-37.499999" height="449.999989" fill-opacity="1"/><rect x="-37.5" width="450" fill="#ffffff" y="-37.499999" height="449.999989" fill-opacity="1"/><path fill="#ffdab9" d="M 170.496094 111.777344 C 171.769531 113.148438 172.992188 114.558594 174.171875 116.015625 C 175.347656 117.46875 176.46875 118.957031 177.535156 120.484375 C 178.601562 122.007812 179.609375 123.558594 180.554688 125.136719 C 181.503906 126.71875 182.386719 128.316406 183.203125 129.9375 C 184.023438 131.558594 184.773438 133.1875 185.453125 134.832031 C 186.136719 136.476562 186.746094 138.125 187.28125 139.777344 C 187.820312 141.429688 188.285156 143.082031 188.675781 144.726562 C 189.0625 146.371094 189.378906 148.003906 189.617188 149.628906 C 189.851562 151.25 190.011719 152.851562 190.097656 154.4375 C 190.179688 156.019531 190.183594 157.578125 190.113281 159.105469 C 190.039062 160.636719 189.890625 162.132812 189.664062 163.59375 C 189.4375 165.054688 189.132812 166.472656 188.753906 167.851562 C 188.375 169.230469 187.921875 170.558594 187.390625 171.839844 C 186.863281 173.121094 186.265625 174.351562 185.59375 175.523438 C 184.921875 176.699219 184.179688 177.8125 183.371094 178.867188 C 182.5625 179.917969 181.6875 180.910156 180.75 181.832031 C 179.808594 182.757812 178.8125 183.613281 177.753906 184.398438 C 176.695312 185.183594 175.582031 185.894531 174.410156 186.535156 C 173.242188 187.171875 172.023438 187.734375 170.757812 188.222656 C 169.488281 188.707031 168.175781 189.117188 166.824219 189.445312 C 165.46875 189.777344 164.078125 190.023438 162.648438 190.191406 C 161.21875 190.363281 159.761719 190.449219 158.273438 190.457031 C 156.785156 190.464844 155.273438 190.390625 153.738281 190.234375 C 152.207031 190.082031 150.65625 189.84375 149.089844 189.53125 C 147.527344 189.214844 145.953125 188.820312 144.375 188.347656 C 142.792969 187.875 141.210938 187.324219 139.632812 186.699219 C 138.050781 186.070312 136.476562 185.371094 134.910156 184.601562 C 133.34375 183.828125 131.792969 182.984375 130.257812 182.074219 C 128.71875 181.160156 127.207031 180.183594 125.714844 179.140625 C 124.222656 178.097656 122.761719 176.992188 121.328125 175.828125 C 119.894531 174.664062 118.496094 173.445312 117.136719 172.175781 C 115.777344 170.902344 114.460938 169.578125 113.183594 168.207031 C 111.910156 166.839844 110.6875 165.425781 109.507812 163.972656 C 108.332031 162.519531 107.210938 161.027344 106.144531 159.503906 C 105.078125 157.980469 104.070312 156.425781 103.125 154.847656 C 102.175781 153.269531 101.296875 151.667969 100.476562 150.050781 C 99.660156 148.429688 98.910156 146.796875 98.226562 145.152344 C 97.546875 143.507812 96.9375 141.859375 96.398438 140.207031 C 95.859375 138.554688 95.394531 136.90625 95.003906 135.261719 C 94.617188 133.613281 94.300781 131.980469 94.066406 130.359375 C 93.828125 128.734375 93.667969 127.132812 93.585938 125.550781 C 93.5 123.964844 93.496094 122.410156 93.570312 120.878906 C 93.640625 119.347656 93.789062 117.855469 94.015625 116.394531 C 94.242188 114.933594 94.546875 113.511719 94.925781 112.136719 C 95.304688 110.757812 95.757812 109.425781 96.289062 108.144531 C 96.816406 106.863281 97.414062 105.632812 98.089844 104.460938 C 98.761719 103.289062 99.5 102.171875 100.308594 101.121094 C 101.117188 100.066406 101.992188 99.078125 102.929688 98.152344 C 103.867188 97.226562 104.867188 96.375 105.925781 95.589844 C 106.984375 94.804688 108.097656 94.089844 109.269531 93.453125 C 110.4375 92.8125 111.65625 92.25 112.921875 91.761719 C 114.191406 91.277344 115.503906 90.871094 116.859375 90.539062 C 118.214844 90.210938 119.605469 89.960938 121.03125 89.792969 C 122.460938 89.621094 123.917969 89.535156 125.40625 89.527344 C 126.894531 89.519531 128.40625 89.59375 129.941406 89.75 C 131.472656 89.90625 133.023438 90.140625 134.589844 90.457031 C 136.152344 90.769531 137.726562 91.164062 139.304688 91.636719 C 140.886719 92.113281 142.46875 92.660156 144.046875 93.289062 C 145.628906 93.914062 147.203125 94.613281 148.769531 95.386719 C 150.335938 96.160156 151.886719 97 153.425781 97.914062 C 154.960938 98.828125 156.472656 99.804688 157.964844 100.847656 C 159.457031 101.890625 160.921875 102.992188 162.351562 104.15625 C 163.785156 105.320312 165.183594 106.539062 166.542969 107.8125 C 167.902344 109.085938 169.21875 110.40625 170.496094 111.777344 Z M 170.496094 111.777344 " fill-opacity="1" fill-rule="nonzero"/><path fill="#ffdab9" d="M 253.003906 147.132812 C 252.074219 148.8125 251.09375 150.460938 250.058594 152.074219 C 249.023438 153.6875 247.941406 155.257812 246.8125 156.785156 C 245.683594 158.3125 244.511719 159.789062 243.300781 161.214844 C 242.085938 162.640625 240.835938 164.011719 239.550781 165.324219 C 238.265625 166.636719 236.949219 167.882812 235.605469 169.070312 C 234.261719 170.257812 232.890625 171.375 231.5 172.421875 C 230.105469 173.46875 228.699219 174.441406 227.273438 175.339844 C 225.847656 176.238281 224.410156 177.0625 222.964844 177.804688 C 221.519531 178.546875 220.074219 179.207031 218.621094 179.785156 C 217.171875 180.363281 215.722656 180.855469 214.28125 181.265625 C 212.839844 181.671875 211.40625 181.996094 209.984375 182.230469 C 208.5625 182.464844 207.160156 182.613281 205.777344 182.671875 C 204.390625 182.730469 203.03125 182.703125 201.695312 182.585938 C 200.355469 182.464844 199.050781 182.261719 197.777344 181.96875 C 196.503906 181.675781 195.265625 181.296875 194.066406 180.832031 C 192.867188 180.367188 191.707031 179.816406 190.59375 179.183594 C 189.480469 178.550781 188.414062 177.835938 187.398438 177.042969 C 186.378906 176.246094 185.414062 175.375 184.503906 174.425781 C 183.59375 173.476562 182.738281 172.457031 181.941406 171.363281 C 181.144531 170.265625 180.410156 169.105469 179.738281 167.878906 C 179.066406 166.648438 178.453125 165.359375 177.910156 164.007812 C 177.367188 162.65625 176.890625 161.25 176.480469 159.785156 C 176.070312 158.324219 175.730469 156.816406 175.457031 155.257812 C 175.1875 153.703125 174.984375 152.105469 174.855469 150.46875 C 174.726562 148.832031 174.664062 147.160156 174.679688 145.457031 C 174.691406 143.753906 174.773438 142.027344 174.929688 140.277344 C 175.082031 138.527344 175.304688 136.757812 175.601562 134.976562 C 175.894531 133.195312 176.261719 131.40625 176.691406 129.609375 C 177.125 127.8125 177.625 126.015625 178.191406 124.222656 C 178.757812 122.425781 179.386719 120.644531 180.082031 118.871094 C 180.777344 117.09375 181.53125 115.339844 182.347656 113.601562 C 183.164062 111.867188 184.039062 110.15625 184.96875 108.472656 C 185.898438 106.789062 186.878906 105.144531 187.914062 103.53125 C 188.949219 101.917969 190.03125 100.347656 191.160156 98.820312 C 192.289062 97.292969 193.460938 95.816406 194.675781 94.390625 C 195.886719 92.964844 197.136719 91.59375 198.421875 90.28125 C 199.707031 88.96875 201.023438 87.71875 202.367188 86.535156 C 203.714844 85.347656 205.082031 84.230469 206.476562 83.183594 C 207.867188 82.136719 209.277344 81.164062 210.703125 80.261719 C 212.125 79.363281 213.5625 78.542969 215.007812 77.800781 C 216.453125 77.058594 217.902344 76.398438 219.351562 75.820312 C 220.804688 75.242188 222.25 74.75 223.695312 74.339844 C 225.136719 73.933594 226.570312 73.609375 227.988281 73.375 C 229.410156 73.140625 230.8125 72.992188 232.199219 72.933594 C 233.585938 72.875 234.945312 72.902344 236.28125 73.019531 C 237.617188 73.136719 238.921875 73.34375 240.199219 73.636719 C 241.472656 73.929688 242.707031 74.308594 243.90625 74.773438 C 245.105469 75.238281 246.265625 75.785156 247.378906 76.417969 C 248.492188 77.050781 249.558594 77.765625 250.578125 78.5625 C 251.59375 79.355469 252.558594 80.230469 253.472656 81.179688 C 254.382812 82.128906 255.234375 83.148438 256.03125 84.242188 C 256.828125 85.335938 257.5625 86.5 258.238281 87.726562 C 258.910156 88.957031 259.519531 90.246094 260.0625 91.597656 C 260.609375 92.949219 261.085938 94.355469 261.496094 95.816406 C 261.90625 97.28125 262.246094 98.789062 262.515625 100.34375 C 262.785156 101.902344 262.988281 103.5 263.117188 105.136719 C 263.25 106.773438 263.308594 108.445312 263.296875 110.144531 C 263.285156 111.847656 263.199219 113.574219 263.046875 115.328125 C 262.890625 117.078125 262.667969 118.84375 262.371094 120.628906 C 262.078125 122.410156 261.714844 124.199219 261.28125 125.996094 C 260.847656 127.792969 260.351562 129.589844 259.78125 131.382812 C 259.21875 133.175781 258.585938 134.960938 257.890625 136.734375 C 257.195312 138.507812 256.441406 140.265625 255.625 142 C 254.808594 143.738281 253.933594 145.449219 253.003906 147.132812 Z M 253.003906 147.132812 " fill-opacity="1" fill-rule="nonzero"/><path fill="#ffdab9" d="M 111.566406 184.195312 C 113.230469 183.296875 114.921875 182.457031 116.636719 181.675781 C 118.351562 180.894531 120.082031 180.175781 121.828125 179.519531 C 123.574219 178.863281 125.328125 178.277344 127.089844 177.753906 C 128.851562 177.230469 130.613281 176.777344 132.375 176.390625 C 134.132812 176.007812 135.882812 175.691406 137.625 175.449219 C 139.367188 175.203125 141.09375 175.03125 142.796875 174.933594 C 144.503906 174.832031 146.183594 174.804688 147.839844 174.847656 C 149.492188 174.894531 151.113281 175.007812 152.699219 175.199219 C 154.285156 175.386719 155.832031 175.644531 157.335938 175.976562 C 158.835938 176.308594 160.292969 176.707031 161.699219 177.179688 C 163.105469 177.648438 164.457031 178.183594 165.75 178.789062 C 167.046875 179.394531 168.277344 180.0625 169.449219 180.796875 C 170.621094 181.53125 171.726562 182.324219 172.761719 183.179688 C 173.796875 184.035156 174.761719 184.945312 175.65625 185.914062 C 176.546875 186.882812 177.363281 187.902344 178.097656 188.976562 C 178.835938 190.050781 179.496094 191.167969 180.074219 192.335938 C 180.652344 193.503906 181.144531 194.710938 181.558594 195.960938 C 181.96875 197.207031 182.296875 198.492188 182.539062 199.8125 C 182.78125 201.132812 182.9375 202.480469 183.003906 203.859375 C 183.074219 205.238281 183.058594 206.636719 182.957031 208.058594 C 182.851562 209.480469 182.660156 210.917969 182.386719 212.371094 C 182.109375 213.824219 181.75 215.289062 181.304688 216.757812 C 180.859375 218.226562 180.332031 219.699219 179.722656 221.171875 C 179.113281 222.644531 178.421875 224.109375 177.652344 225.574219 C 176.882812 227.035156 176.039062 228.480469 175.117188 229.917969 C 174.195312 231.355469 173.203125 232.769531 172.140625 234.167969 C 171.074219 235.5625 169.945312 236.933594 168.746094 238.277344 C 167.550781 239.621094 166.292969 240.933594 164.976562 242.210938 C 163.660156 243.488281 162.285156 244.726562 160.859375 245.925781 C 159.433594 247.125 157.960938 248.28125 156.4375 249.390625 C 154.917969 250.503906 153.355469 251.5625 151.753906 252.570312 C 150.152344 253.582031 148.519531 254.535156 146.851562 255.4375 C 145.1875 256.335938 143.496094 257.179688 141.78125 257.960938 C 140.066406 258.742188 138.339844 259.457031 136.59375 260.113281 C 134.84375 260.769531 133.089844 261.359375 131.328125 261.878906 C 129.566406 262.402344 127.804688 262.855469 126.046875 263.242188 C 124.285156 263.625 122.535156 263.941406 120.792969 264.183594 C 119.050781 264.429688 117.328125 264.601562 115.621094 264.703125 C 113.914062 264.800781 112.234375 264.828125 110.582031 264.785156 C 108.925781 264.738281 107.304688 264.625 105.71875 264.433594 C 104.132812 264.246094 102.585938 263.988281 101.085938 263.65625 C 99.582031 263.324219 98.125 262.925781 96.71875 262.453125 C 95.3125 261.984375 93.964844 261.449219 92.667969 260.84375 C 91.375 260.238281 90.140625 259.570312 88.96875 258.835938 C 87.796875 258.101562 86.695312 257.308594 85.65625 256.453125 C 84.621094 255.597656 83.65625 254.6875 82.765625 253.71875 C 81.871094 252.75 81.058594 251.726562 80.320312 250.65625 C 79.582031 249.582031 78.921875 248.464844 78.34375 247.296875 C 77.765625 246.128906 77.273438 244.921875 76.859375 243.671875 C 76.449219 242.421875 76.121094 241.140625 75.878906 239.820312 C 75.636719 238.5 75.484375 237.152344 75.414062 235.773438 C 75.34375 234.394531 75.363281 232.996094 75.464844 231.574219 C 75.566406 230.152344 75.757812 228.714844 76.035156 227.261719 C 76.308594 225.808594 76.667969 224.34375 77.117188 222.875 C 77.558594 221.40625 78.085938 219.933594 78.695312 218.460938 C 79.308594 216.988281 79.996094 215.519531 80.765625 214.058594 C 81.535156 212.597656 82.382812 211.148438 83.300781 209.714844 C 84.222656 208.277344 85.214844 206.863281 86.28125 205.464844 C 87.34375 204.070312 88.476562 202.699219 89.671875 201.355469 C 90.867188 200.011719 92.125 198.703125 93.445312 197.421875 C 94.761719 196.144531 96.132812 194.90625 97.558594 193.707031 C 98.984375 192.507812 100.460938 191.351562 101.980469 190.242188 C 103.503906 189.132812 105.0625 188.070312 106.664062 187.0625 C 108.265625 186.050781 109.898438 185.097656 111.566406 184.195312 Z M 111.566406 184.195312 " fill-opacity="1" fill-rule="nonzero"/><path fill="#ffdab9" d="M 160.238281 260.703125 C 159.929688 258.816406 159.6875 256.925781 159.503906 255.027344 C 159.324219 253.128906 159.203125 251.230469 159.148438 249.335938 C 159.097656 247.441406 159.105469 245.558594 159.179688 243.683594 C 159.253906 241.808594 159.390625 239.953125 159.59375 238.121094 C 159.792969 236.285156 160.054688 234.480469 160.382812 232.703125 C 160.707031 230.925781 161.09375 229.183594 161.542969 227.480469 C 161.992188 225.777344 162.5 224.121094 163.066406 222.507812 C 163.632812 220.894531 164.257812 219.335938 164.933594 217.828125 C 165.613281 216.320312 166.347656 214.875 167.128906 213.492188 C 167.914062 212.105469 168.75 210.785156 169.632812 209.535156 C 170.515625 208.28125 171.445312 207.105469 172.417969 206 C 173.390625 204.894531 174.402344 203.867188 175.457031 202.917969 C 176.511719 201.96875 177.597656 201.101562 178.722656 200.320312 C 179.847656 199.535156 181 198.839844 182.183594 198.230469 C 183.367188 197.621094 184.574219 197.101562 185.804688 196.667969 C 187.039062 196.238281 188.289062 195.898438 189.554688 195.652344 C 190.820312 195.40625 192.101562 195.253906 193.394531 195.191406 C 194.6875 195.128906 195.984375 195.164062 197.285156 195.289062 C 198.589844 195.414062 199.894531 195.628906 201.195312 195.941406 C 202.5 196.25 203.792969 196.652344 205.082031 197.144531 C 206.371094 197.636719 207.648438 198.21875 208.910156 198.890625 C 210.171875 199.558594 211.417969 200.316406 212.644531 201.15625 C 213.867188 201.996094 215.066406 202.917969 216.242188 203.921875 C 217.417969 204.925781 218.5625 206.007812 219.675781 207.164062 C 220.789062 208.324219 221.867188 209.550781 222.910156 210.851562 C 223.953125 212.148438 224.953125 213.511719 225.914062 214.941406 C 226.875 216.371094 227.789062 217.859375 228.65625 219.402344 C 229.527344 220.945312 230.34375 222.542969 231.113281 224.1875 C 231.882812 225.832031 232.597656 227.519531 233.261719 229.25 C 233.921875 230.984375 234.53125 232.746094 235.078125 234.546875 C 235.628906 236.34375 236.117188 238.171875 236.546875 240.019531 C 236.976562 241.871094 237.347656 243.738281 237.652344 245.621094 C 237.960938 247.503906 238.207031 249.394531 238.386719 251.292969 C 238.570312 253.191406 238.6875 255.089844 238.742188 256.984375 C 238.796875 258.878906 238.789062 260.765625 238.714844 262.640625 C 238.640625 264.511719 238.503906 266.367188 238.300781 268.203125 C 238.101562 270.035156 237.835938 271.84375 237.511719 273.621094 C 237.183594 275.398438 236.796875 277.136719 236.347656 278.839844 C 235.898438 280.542969 235.390625 282.203125 234.824219 283.816406 C 234.257812 285.429688 233.636719 286.988281 232.957031 288.492188 C 232.277344 290 231.546875 291.445312 230.761719 292.832031 C 229.976562 294.21875 229.144531 295.535156 228.261719 296.789062 C 227.378906 298.039062 226.449219 299.21875 225.476562 300.324219 C 224.503906 301.429688 223.492188 302.457031 222.4375 303.40625 C 221.382812 304.355469 220.292969 305.21875 219.171875 306.003906 C 218.046875 306.785156 216.890625 307.484375 215.710938 308.09375 C 214.527344 308.703125 213.316406 309.222656 212.085938 309.652344 C 210.855469 310.082031 209.605469 310.421875 208.339844 310.667969 C 207.070312 310.914062 205.789062 311.070312 204.5 311.128906 C 203.207031 311.191406 201.910156 311.160156 200.605469 311.035156 C 199.300781 310.910156 198 310.691406 196.695312 310.382812 C 195.394531 310.070312 194.097656 309.667969 192.8125 309.175781 C 191.519531 308.683594 190.246094 308.101562 188.984375 307.433594 C 187.71875 306.761719 186.476562 306.007812 185.25 305.167969 C 184.027344 304.324219 182.824219 303.402344 181.648438 302.398438 C 180.476562 301.394531 179.332031 300.3125 178.21875 299.15625 C 177.101562 298 176.023438 296.773438 174.980469 295.472656 C 173.941406 294.171875 172.941406 292.808594 171.980469 291.378906 C 171.019531 289.953125 170.105469 288.464844 169.238281 286.921875 C 168.367188 285.375 167.546875 283.78125 166.78125 282.132812 C 166.011719 280.488281 165.292969 278.800781 164.632812 277.070312 C 163.96875 275.339844 163.363281 273.574219 162.816406 271.777344 C 162.265625 269.976562 161.777344 268.152344 161.34375 266.300781 C 160.914062 264.453125 160.546875 262.585938 160.238281 260.703125 Z M 160.238281 260.703125 " fill-opacity="1" fill-rule="nonzero"/><path fill="#ffdab9" d="M 246.09375 234.914062 C 244.25 234.667969 242.417969 234.355469 240.605469 233.980469 C 238.789062 233.609375 236.996094 233.171875 235.226562 232.675781 C 233.453125 232.175781 231.714844 231.617188 230.007812 231.003906 C 228.300781 230.386719 226.628906 229.710938 225.003906 228.984375 C 223.375 228.253906 221.789062 227.472656 220.257812 226.636719 C 218.722656 225.800781 217.242188 224.917969 215.816406 223.984375 C 214.390625 223.050781 213.027344 222.070312 211.726562 221.050781 C 210.421875 220.027344 209.1875 218.964844 208.023438 217.863281 C 206.855469 216.765625 205.761719 215.628906 204.742188 214.460938 C 203.722656 213.289062 202.78125 212.089844 201.917969 210.863281 C 201.054688 209.636719 200.273438 208.390625 199.578125 207.117188 C 198.878906 205.84375 198.265625 204.558594 197.742188 203.25 C 197.214844 201.945312 196.777344 200.632812 196.425781 199.304688 C 196.078125 197.980469 195.816406 196.652344 195.648438 195.316406 C 195.476562 193.984375 195.398438 192.652344 195.410156 191.324219 C 195.421875 189.996094 195.527344 188.679688 195.71875 187.367188 C 195.914062 186.058594 196.199219 184.761719 196.574219 183.484375 C 196.945312 182.203125 197.40625 180.945312 197.957031 179.707031 C 198.507812 178.472656 199.144531 177.261719 199.863281 176.078125 C 200.585938 174.898438 201.386719 173.746094 202.273438 172.632812 C 203.15625 171.515625 204.121094 170.4375 205.160156 169.398438 C 206.199219 168.359375 207.3125 167.363281 208.5 166.410156 C 209.683594 165.460938 210.9375 164.554688 212.257812 163.699219 C 213.574219 162.84375 214.957031 162.039062 216.394531 161.285156 C 217.835938 160.535156 219.332031 159.839844 220.878906 159.199219 C 222.429688 158.558594 224.023438 157.976562 225.664062 157.453125 C 227.304688 156.929688 228.984375 156.46875 230.699219 156.070312 C 232.417969 155.667969 234.164062 155.332031 235.941406 155.058594 C 237.71875 154.785156 239.519531 154.578125 241.339844 154.433594 C 243.160156 154.289062 244.992188 154.210938 246.839844 154.199219 C 248.6875 154.183594 250.535156 154.234375 252.390625 154.351562 C 254.242188 154.46875 256.089844 154.652344 257.933594 154.898438 C 259.777344 155.144531 261.609375 155.457031 263.425781 155.832031 C 265.242188 156.207031 267.035156 156.640625 268.804688 157.140625 C 270.574219 157.636719 272.3125 158.195312 274.023438 158.808594 C 275.730469 159.425781 277.398438 160.101562 279.027344 160.828125 C 280.65625 161.558594 282.238281 162.339844 283.773438 163.175781 C 285.308594 164.011719 286.789062 164.898438 288.214844 165.832031 C 289.640625 166.761719 291.003906 167.742188 292.304688 168.761719 C 293.605469 169.785156 294.839844 170.847656 296.007812 171.949219 C 297.171875 173.050781 298.265625 174.183594 299.285156 175.355469 C 300.304688 176.523438 301.246094 177.722656 302.109375 178.949219 C 302.972656 180.175781 303.753906 181.425781 304.453125 182.695312 C 305.148438 183.96875 305.761719 185.257812 306.289062 186.5625 C 306.816406 187.867188 307.253906 189.183594 307.601562 190.507812 C 307.953125 191.832031 308.210938 193.160156 308.382812 194.496094 C 308.550781 195.828125 308.628906 197.160156 308.617188 198.488281 C 308.605469 199.816406 308.503906 201.136719 308.308594 202.445312 C 308.113281 203.753906 307.832031 205.050781 307.457031 206.332031 C 307.082031 207.609375 306.621094 208.867188 306.070312 210.105469 C 305.523438 211.34375 304.886719 212.550781 304.164062 213.734375 C 303.445312 214.917969 302.640625 216.066406 301.757812 217.179688 C 300.871094 218.296875 299.910156 219.375 298.871094 220.414062 C 297.828125 221.453125 296.71875 222.449219 295.53125 223.402344 C 294.34375 224.355469 293.09375 225.257812 291.773438 226.113281 C 290.453125 226.96875 289.074219 227.773438 287.632812 228.527344 C 286.191406 229.277344 284.699219 229.972656 283.148438 230.613281 C 281.601562 231.253906 280.007812 231.835938 278.367188 232.359375 C 276.726562 232.882812 275.046875 233.34375 273.328125 233.742188 C 271.613281 234.144531 269.863281 234.480469 268.085938 234.753906 C 266.308594 235.027344 264.511719 235.234375 262.691406 235.378906 C 260.867188 235.523438 259.035156 235.601562 257.191406 235.617188 C 255.34375 235.628906 253.492188 235.578125 251.640625 235.460938 C 249.785156 235.34375 247.9375 235.160156 246.09375 234.914062 Z M 246.09375 234.914062 " fill-opacity="1" fill-rule="nonzero"/><path fill="#ffdab9" d="M 246.09375 234.914062 C 244.25 234.667969 242.417969 234.355469 240.605469 233.980469 C 238.789062 233.609375 236.996094 233.171875 235.226562 232.675781 C 233.453125 232.175781 231.714844 231.617188 230.007812 231.003906 C 228.300781 230.386719 226.628906 229.710938 225.003906 228.984375 C 223.375 228.253906 221.789062 227.472656 220.257812 226.636719 C 218.722656 225.800781 217.242188 224.917969 215.816406 223.984375 C 214.390625 223.050781 213.027344 222.070312 211.726562 221.050781 C 210.421875 220.027344 209.1875 218.964844 208.023438 217.863281 C 206.855469 216.765625 205.761719 215.628906 204.742188 214.460938 C 203.722656 213.289062 202.78125 212.089844 201.917969 210.863281 C 201.054688 209.636719 200.273438 208.390625 199.578125 207.117188 C 198.878906 205.84375 198.265625 204.558594 197.742188 203.25 C 197.214844 201.945312 196.777344 200.632812 196.425781 199.304688 C 196.078125 197.980469 195.816406 196.652344 195.648438 195.316406 C 195.476562 193.984375 195.398438 192.652344 195.410156 191.324219 C 195.421875 189.996094 195.527344 188.679688 195.71875 187.367188 C 195.914062 186.058594 196.199219 184.761719 196.574219 183.484375 C 196.945312 182.203125 197.40625 180.945312 197.957031 179.707031 C 198.507812 178.472656 199.144531 177.261719 199.863281 176.078125 C 200.585938 174.898438 201.386719 173.746094 202.273438 172.632812 C 203.15625 171.515625 204.121094 170.4375 205.160156 169.398438 C 206.199219 168.359375 207.3125 167.363281 208.5 166.410156 C 209.683594 165.460938 210.9375 164.554688 212.257812 163.699219 C 213.574219 162.84375 214.957031 162.039062 216.394531 161.285156 C 217.835938 160.535156 219.332031 159.839844 220.878906 159.199219 C 222.429688 158.558594 224.023438 157.976562 225.664062 157.453125 C 227.304688 156.929688 228.984375 156.46875 230.699219 156.070312 C 232.417969 155.667969 234.164062 155.332031 235.941406 155.058594 C 237.71875 154.785156 239.519531 154.578125 241.339844 154.433594 C 243.160156 154.289062 244.992188 154.210938 246.839844 154.199219 C 248.6875 154.183594 250.535156 154.234375 252.390625 154.351562 C 254.242188 154.46875 256.089844 154.652344 257.933594 154.898438 C 259.777344 155.144531 261.609375 155.457031 263.425781 155.832031 C 265.242188 156.207031 267.035156 156.640625 268.804688 157.140625 C 270.574219 157.636719 272.3125 158.195312 274.023438 158.808594 C 275.730469 159.425781 277.398438 160.101562 279.027344 160.828125 C 280.65625 161.558594 282.238281 162.339844 283.773438 163.175781 C 285.308594 164.011719 286.789062 164.898438 288.214844 165.832031 C 289.640625 166.761719 291.003906 167.742188 292.304688 168.761719 C 293.605469 169.785156 294.839844 170.847656 296.007812 171.949219 C 297.171875 173.050781 298.265625 174.183594 299.285156 175.355469 C 300.304688 176.523438 301.246094 177.722656 302.109375 178.949219 C 302.972656 180.175781 303.753906 181.425781 304.453125 182.695312 C 305.148438 183.96875 305.761719 185.257812 306.289062 186.5625 C 306.816406 187.867188 307.253906 189.183594 307.601562 190.507812 C 307.953125 191.832031 308.210938 193.160156 308.382812 194.496094 C 308.550781 195.828125 308.628906 197.160156 308.617188 198.488281 C 308.605469 199.816406 308.503906 201.136719 308.308594 202.445312 C 308.113281 203.753906 307.832031 205.050781 307.457031 206.332031 C 307.082031 207.609375 306.621094 208.867188 306.070312 210.105469 C 305.523438 211.34375 304.886719 212.550781 304.164062 213.734375 C 303.445312 214.917969 302.640625 216.066406 301.757812 217.179688 C 300.871094 218.296875 299.910156 219.375 298.871094 220.414062 C 297.828125 221.453125 296.71875 222.449219 295.53125 223.402344 C 294.34375 224.355469 293.09375 225.257812 291.773438 226.113281 C 290.453125 226.96875 289.074219 227.773438 287.632812 228.527344 C 286.191406 229.277344 284.699219 229.972656 283.148438 230.613281 C 281.601562 231.253906 280.007812 231.835938 278.367188 232.359375 C 276.726562 232.882812 275.046875 233.34375 273.328125 233.742188 C 271.613281 234.144531 269.863281 234.480469 268.085938 234.753906 C 266.308594 235.027344 264.511719 235.234375 262.691406 235.378906 C 260.867188 235.523438 259.035156 235.601562 257.191406 235.617188 C 255.34375 235.628906 253.492188 235.578125 251.640625 235.460938 C 249.785156 235.34375 247.9375 235.160156 246.09375 234.914062 Z M 246.09375 234.914062 " fill-opacity="1" fill-rule="nonzero"/><path fill="#f4a460" d="M 209.570312 164.871094 C 210.316406 165.671875 211.023438 166.507812 211.6875 167.375 C 212.355469 168.246094 212.984375 169.144531 213.566406 170.074219 C 214.152344 171.003906 214.691406 171.957031 215.1875 172.9375 C 215.679688 173.917969 216.128906 174.921875 216.53125 175.945312 C 216.933594 176.964844 217.285156 178.003906 217.585938 179.058594 C 217.890625 180.113281 218.144531 181.179688 218.347656 182.253906 C 218.546875 183.332031 218.699219 184.410156 218.800781 185.5 C 218.898438 186.585938 218.949219 187.675781 218.945312 188.761719 C 218.941406 189.851562 218.886719 190.933594 218.777344 192.011719 C 218.671875 193.09375 218.511719 194.160156 218.304688 195.21875 C 218.09375 196.277344 217.832031 197.324219 217.523438 198.351562 C 217.210938 199.378906 216.851562 200.386719 216.445312 201.378906 C 216.039062 202.367188 215.582031 203.328125 215.082031 204.269531 C 214.582031 205.207031 214.035156 206.117188 213.445312 206.996094 C 212.855469 207.878906 212.222656 208.722656 211.546875 209.539062 C 210.875 210.351562 210.164062 211.125 209.414062 211.867188 C 208.664062 212.605469 207.878906 213.300781 207.058594 213.957031 C 206.242188 214.613281 205.390625 215.226562 204.511719 215.792969 C 203.628906 216.363281 202.722656 216.882812 201.789062 217.355469 C 200.855469 217.832031 199.898438 218.253906 198.921875 218.632812 C 197.945312 219.007812 196.949219 219.332031 195.9375 219.605469 C 194.925781 219.878906 193.898438 220.101562 192.863281 220.269531 C 191.824219 220.4375 190.78125 220.554688 189.726562 220.617188 C 188.675781 220.679688 187.621094 220.6875 186.566406 220.644531 C 185.507812 220.601562 184.453125 220.503906 183.402344 220.351562 C 182.351562 220.203125 181.308594 220 180.273438 219.742188 C 179.238281 219.488281 178.214844 219.179688 177.203125 218.824219 C 176.195312 218.464844 175.203125 218.058594 174.226562 217.601562 C 173.25 217.144531 172.296875 216.636719 171.367188 216.085938 C 170.4375 215.535156 169.535156 214.9375 168.65625 214.296875 C 167.78125 213.652344 166.933594 212.972656 166.121094 212.246094 C 165.304688 211.523438 164.523438 210.757812 163.78125 209.960938 C 163.035156 209.15625 162.332031 208.324219 161.664062 207.453125 C 160.996094 206.585938 160.371094 205.683594 159.785156 204.753906 C 159.203125 203.828125 158.660156 202.871094 158.167969 201.890625 C 157.671875 200.910156 157.222656 199.910156 156.824219 198.886719 C 156.421875 197.863281 156.070312 196.824219 155.765625 195.769531 C 155.460938 194.714844 155.210938 193.652344 155.007812 192.574219 C 154.804688 191.5 154.652344 190.417969 154.554688 189.332031 C 154.453125 188.242188 154.40625 187.15625 154.410156 186.066406 C 154.414062 184.976562 154.46875 183.894531 154.574219 182.816406 C 154.683594 181.738281 154.839844 180.667969 155.050781 179.609375 C 155.261719 178.550781 155.519531 177.507812 155.832031 176.476562 C 156.140625 175.449219 156.5 174.441406 156.910156 173.453125 C 157.316406 172.464844 157.769531 171.5 158.269531 170.5625 C 158.773438 169.621094 159.320312 168.710938 159.910156 167.832031 C 160.5 166.953125 161.128906 166.105469 161.804688 165.292969 C 162.476562 164.476562 163.1875 163.703125 163.9375 162.964844 C 164.6875 162.226562 165.472656 161.527344 166.292969 160.871094 C 167.109375 160.214844 167.960938 159.601562 168.84375 159.035156 C 169.722656 158.46875 170.628906 157.945312 171.5625 157.472656 C 172.496094 157 173.453125 156.574219 174.429688 156.199219 C 175.410156 155.824219 176.402344 155.496094 177.414062 155.222656 C 178.429688 154.949219 179.453125 154.730469 180.492188 154.558594 C 181.527344 154.390625 182.570312 154.273438 183.625 154.210938 C 184.675781 154.148438 185.730469 154.140625 186.789062 154.183594 C 187.84375 154.226562 188.898438 154.324219 189.949219 154.476562 C 191 154.625 192.042969 154.828125 193.082031 155.085938 C 194.117188 155.339844 195.140625 155.648438 196.148438 156.007812 C 197.160156 156.363281 198.152344 156.773438 199.128906 157.230469 C 200.101562 157.6875 201.054688 158.191406 201.984375 158.746094 C 202.914062 159.296875 203.820312 159.894531 204.695312 160.535156 C 205.574219 161.175781 206.417969 161.859375 207.234375 162.582031 C 208.046875 163.308594 208.828125 164.070312 209.570312 164.871094 Z M 209.570312 164.871094 " fill-opacity="1" fill-rule="nonzero"/></svg>