<svg xmlns="http://www.w3.org/2000/svg" xmlns:xlink="http://www.w3.org/1999/xlink" width="500" zoomAndPan="magnify" viewBox="0 0 375 374.999991" height="500" preserveAspectRatio="xMidYMid meet" version="1.0"><rect x="-37.5" width="450" fill="#ffffff" y="-37.499999" height="449.999989" fill-opacity="1"/><rect x="-37.5" width="450" fill="#ffffff" y="-37.499999" height="449.999989" fill-opacity="1"/><rect x="-37.5" width="450" fill="#ffffff" y="-37.499999" height="449.999989" fill-opacity="1"/><path fill="#ed8d95" d="M 303.917969 154.773438 C 223.53125 133.863281 196.894531 154.347656 196.894531 154.347656 C 196.300781 157.074219 195.8125 159.855469 195.445312 162.652344 C 190.164062 162.128906 184.878906 161.996094 179.578125 162.253906 C 179.152344 159.644531 178.628906 157.058594 178.023438 154.511719 C 178.023438 154.511719 143.242188 137.660156 71.023438 156.992188 C 60.722656 159.757812 80.78125 169.515625 80.78125 169.515625 C 80.78125 169.515625 79.636719 236.234375 128.089844 238.914062 C 161.578125 240.785156 177.144531 217.953125 180.359375 190.804688 C 184.582031 189.757812 190.007812 188.613281 195.472656 189.472656 C 199.410156 217.355469 216.066406 240.980469 248.4375 237.765625 C 297.960938 232.847656 294.410156 167.445312 294.410156 167.445312 C 294.410156 167.445312 314.242188 157.460938 303.917969 154.773438 Z M 180.878906 174.382812 C 180.804688 172.8125 180.691406 171.234375 180.542969 169.640625 C 184.699219 169.304688 189.890625 168.902344 194.796875 168.898438 C 194.6875 170.503906 194.613281 172.113281 194.578125 173.730469 C 190.765625 173.304688 185.601562 173.113281 180.878906 174.382812 Z M 180.878906 174.382812 " fill-opacity="1" fill-rule="nonzero"/><path fill="#2c3e4e" d="M 172.355469 162.230469 C 172.355469 162.230469 177.761719 224.378906 142.386719 227.574219 C 107.011719 230.769531 90.773438 213.378906 89.558594 164.175781 C 89.558594 164.175781 119.386719 148.046875 172.355469 162.230469 Z M 286.652344 161.136719 C 238.441406 147.3125 202.050781 161.945312 202.050781 161.945312 C 203.238281 211.179688 216.226562 229.726562 251.601562 226.53125 C 286.980469 223.332031 286.652344 161.136719 286.652344 161.136719 Z M 286.652344 161.136719 " fill-opacity="1" fill-rule="nonzero"/><path fill="#09698c" d="M 139.246094 205.8125 C 139.039062 206.0625 138.808594 206.292969 138.558594 206.503906 C 138.304688 206.710938 138.035156 206.890625 137.75 207.046875 C 137.460938 207.203125 137.160156 207.328125 136.847656 207.425781 C 136.535156 207.519531 136.21875 207.585938 135.890625 207.617188 C 135.566406 207.652344 135.242188 207.652344 134.917969 207.621094 C 134.589844 207.589844 134.269531 207.527344 133.957031 207.4375 C 133.644531 207.34375 133.34375 207.21875 133.054688 207.066406 C 132.765625 206.914062 132.496094 206.734375 132.242188 206.527344 L 100.621094 180.824219 C 100.367188 180.621094 100.136719 180.390625 99.925781 180.140625 C 99.71875 179.886719 99.535156 179.617188 99.382812 179.332031 C 99.226562 179.042969 99.101562 178.746094 99.003906 178.433594 C 98.90625 178.121094 98.84375 177.800781 98.808594 177.476562 C 98.777344 177.152344 98.773438 176.828125 98.804688 176.503906 C 98.835938 176.179688 98.898438 175.859375 98.992188 175.546875 C 99.085938 175.234375 99.210938 174.933594 99.363281 174.644531 C 99.515625 174.355469 99.695312 174.085938 99.902344 173.832031 C 100.105469 173.578125 100.335938 173.347656 100.589844 173.136719 C 100.839844 172.929688 101.109375 172.746094 101.398438 172.589844 C 101.6875 172.4375 101.988281 172.308594 102.300781 172.214844 C 102.613281 172.117188 102.933594 172.050781 103.257812 172.019531 C 103.585938 171.984375 103.910156 171.984375 104.238281 172.015625 C 104.5625 172.046875 104.882812 172.109375 105.195312 172.203125 C 105.511719 172.296875 105.8125 172.421875 106.101562 172.574219 C 106.390625 172.726562 106.660156 172.90625 106.914062 173.113281 L 138.542969 198.839844 C 138.796875 199.046875 139.023438 199.277344 139.230469 199.527344 C 139.4375 199.777344 139.617188 200.046875 139.769531 200.332031 C 139.925781 200.621094 140.046875 200.917969 140.144531 201.230469 C 140.238281 201.539062 140.300781 201.859375 140.335938 202.179688 C 140.367188 202.503906 140.367188 202.828125 140.335938 203.152344 C 140.304688 203.476562 140.242188 203.792969 140.148438 204.105469 C 140.054688 204.414062 139.933594 204.714844 139.78125 205 C 139.628906 205.289062 139.449219 205.558594 139.246094 205.8125 Z M 254.625 195.953125 L 222.996094 170.226562 C 222.746094 170.019531 222.472656 169.839844 222.183594 169.6875 C 221.894531 169.535156 221.59375 169.414062 221.28125 169.320312 C 220.96875 169.226562 220.648438 169.164062 220.324219 169.132812 C 220 169.101562 219.671875 169.101562 219.347656 169.136719 C 219.023438 169.167969 218.703125 169.234375 218.390625 169.332031 C 218.078125 169.425781 217.777344 169.550781 217.492188 169.707031 C 217.203125 169.863281 216.933594 170.042969 216.683594 170.25 C 216.429688 170.460938 216.203125 170.691406 215.996094 170.945312 C 215.789062 171.195312 215.609375 171.46875 215.457031 171.757812 C 215.304688 172.042969 215.179688 172.34375 215.085938 172.65625 C 214.992188 172.972656 214.929688 173.289062 214.898438 173.613281 C 214.871094 173.941406 214.871094 174.265625 214.902344 174.589844 C 214.9375 174.914062 215.003906 175.230469 215.097656 175.542969 C 215.195312 175.855469 215.320312 176.15625 215.476562 176.441406 C 215.632812 176.730469 215.8125 177 216.019531 177.25 C 216.230469 177.503906 216.460938 177.730469 216.714844 177.9375 L 248.335938 203.664062 C 248.589844 203.871094 248.859375 204.050781 249.148438 204.203125 C 249.4375 204.355469 249.738281 204.480469 250.054688 204.574219 C 250.367188 204.667969 250.6875 204.730469 251.011719 204.761719 C 251.339844 204.792969 251.664062 204.792969 251.988281 204.761719 C 252.316406 204.726562 252.632812 204.664062 252.945312 204.566406 C 253.261719 204.472656 253.558594 204.34375 253.847656 204.191406 C 254.136719 204.035156 254.40625 203.855469 254.660156 203.644531 C 254.910156 203.4375 255.140625 203.207031 255.347656 202.953125 C 255.554688 202.699219 255.734375 202.429688 255.886719 202.140625 C 256.039062 201.851562 256.164062 201.550781 256.257812 201.238281 C 256.351562 200.921875 256.414062 200.605469 256.445312 200.277344 C 256.476562 199.953125 256.472656 199.628906 256.441406 199.304688 C 256.40625 198.976562 256.34375 198.660156 256.246094 198.347656 C 256.148438 198.035156 256.023438 197.734375 255.867188 197.445312 C 255.710938 197.160156 255.53125 196.890625 255.320312 196.636719 C 255.113281 196.386719 254.878906 196.15625 254.625 195.953125 Z M 275.414062 192.601562 L 243.792969 166.867188 C 243.539062 166.664062 243.265625 166.484375 242.976562 166.332031 C 242.6875 166.175781 242.386719 166.054688 242.074219 165.960938 C 241.761719 165.867188 241.441406 165.804688 241.117188 165.773438 C 240.789062 165.742188 240.464844 165.746094 240.140625 165.777344 C 239.8125 165.8125 239.496094 165.875 239.183594 165.972656 C 238.871094 166.070312 238.570312 166.195312 238.28125 166.347656 C 237.992188 166.503906 237.722656 166.6875 237.472656 166.894531 C 237.21875 167.101562 236.992188 167.332031 236.785156 167.585938 C 236.578125 167.839844 236.398438 168.109375 236.246094 168.398438 C 236.09375 168.6875 235.96875 168.988281 235.875 169.300781 C 235.78125 169.613281 235.71875 169.933594 235.6875 170.257812 C 235.65625 170.582031 235.660156 170.90625 235.691406 171.230469 C 235.726562 171.554688 235.789062 171.875 235.886719 172.1875 C 235.984375 172.5 236.109375 172.796875 236.265625 173.085938 C 236.417969 173.371094 236.601562 173.640625 236.808594 173.894531 C 237.019531 174.144531 237.25 174.375 237.503906 174.578125 L 269.128906 200.304688 C 269.382812 200.511719 269.65625 200.691406 269.945312 200.84375 C 270.234375 200.996094 270.535156 201.121094 270.847656 201.214844 C 271.160156 201.308594 271.480469 201.371094 271.804688 201.402344 C 272.128906 201.429688 272.457031 201.429688 272.78125 201.398438 C 273.105469 201.363281 273.425781 201.296875 273.738281 201.203125 C 274.050781 201.105469 274.351562 200.980469 274.636719 200.824219 C 274.925781 200.671875 275.195312 200.488281 275.445312 200.28125 C 275.699219 200.074219 275.929688 199.84375 276.132812 199.589844 C 276.339844 199.335938 276.519531 199.066406 276.671875 198.777344 C 276.828125 198.488281 276.949219 198.1875 277.042969 197.875 C 277.136719 197.5625 277.199219 197.242188 277.230469 196.917969 C 277.261719 196.59375 277.257812 196.269531 277.226562 195.941406 C 277.191406 195.617188 277.128906 195.300781 277.03125 194.988281 C 276.933594 194.675781 276.808594 194.375 276.652344 194.089844 C 276.5 193.800781 276.316406 193.53125 276.109375 193.28125 C 275.898438 193.03125 275.667969 192.800781 275.414062 192.59375 Z M 161.375 196.652344 L 129.746094 170.925781 C 129.492188 170.71875 129.222656 170.539062 128.933594 170.386719 C 128.644531 170.234375 128.34375 170.109375 128.03125 170.015625 C 127.71875 169.921875 127.398438 169.859375 127.070312 169.828125 C 126.746094 169.796875 126.421875 169.800781 126.09375 169.832031 C 125.769531 169.867188 125.449219 169.929688 125.136719 170.027344 C 124.824219 170.121094 124.523438 170.246094 124.238281 170.402344 C 123.949219 170.558594 123.679688 170.738281 123.425781 170.949219 C 123.175781 171.15625 122.945312 171.386719 122.738281 171.640625 C 122.535156 171.894531 122.355469 172.164062 122.199219 172.453125 C 122.046875 172.742188 121.925781 173.042969 121.832031 173.355469 C 121.738281 173.667969 121.675781 173.988281 121.644531 174.3125 C 121.613281 174.636719 121.617188 174.964844 121.648438 175.289062 C 121.683594 175.613281 121.746094 175.933594 121.84375 176.242188 C 121.941406 176.554688 122.066406 176.855469 122.222656 177.144531 C 122.378906 177.429688 122.558594 177.699219 122.769531 177.953125 C 122.976562 178.203125 123.210938 178.429688 123.464844 178.636719 L 155.089844 204.363281 C 155.34375 204.570312 155.617188 204.75 155.90625 204.902344 C 156.195312 205.054688 156.496094 205.179688 156.808594 205.273438 C 157.121094 205.367188 157.441406 205.429688 157.765625 205.460938 C 158.09375 205.492188 158.417969 205.488281 158.742188 205.457031 C 159.066406 205.421875 159.386719 205.359375 159.699219 205.261719 C 160.011719 205.167969 160.3125 205.042969 160.601562 204.886719 C 160.886719 204.730469 161.160156 204.550781 161.410156 204.339844 C 161.664062 204.132812 161.890625 203.902344 162.097656 203.648438 C 162.304688 203.394531 162.484375 203.125 162.636719 202.835938 C 162.789062 202.546875 162.914062 202.246094 163.007812 201.933594 C 163.101562 201.621094 163.164062 201.300781 163.195312 200.976562 C 163.222656 200.652344 163.222656 200.324219 163.1875 200 C 163.15625 199.675781 163.089844 199.355469 162.992188 199.046875 C 162.898438 198.734375 162.769531 198.433594 162.617188 198.144531 C 162.460938 197.859375 162.277344 197.589844 162.070312 197.339844 C 161.859375 197.085938 161.628906 196.859375 161.375 196.652344 Z M 161.375 196.652344 " fill-opacity="1" fill-rule="nonzero"/></svg>